<?xml version="1.0" encoding="utf-8"?>
<!-- Generator: Adobe Illustrator 24.0.1, SVG Export Plug-In . SVG Version: 6.00 Build 0)  -->
<svg version="1.1" id="Capa_1" xmlns="http://www.w3.org/2000/svg" xmlns:xlink="http://www.w3.org/1999/xlink" x="0px" y="0px"
	 viewBox="0 0 127 50" style="enable-background:new 0 0 127 50;" xml:space="preserve">
<style type="text/css">
	.st0{fill-rule:evenodd;clip-rule:evenodd;fill:#572EE5;}
	.st1{enable-background:new    ;}
	.st2{fill:#FFFFFF;}
</style>
<title>CTA-ver-mas-hover</title>
<desc>Created with Sketch.</desc>
<g id="GIFOS">
	<g id="_x30_0-UI-Kit" transform="translate(-313.000000, -3032.000000)">
		<g id="CTA-ver-mas-hover" transform="translate(313.000000, 3032.000000)">
			<path id="Rectangle-3" class="st0" d="M25,0h77c13.8,0,25,11.2,25,25l0,0c0,13.8-11.2,25-25,25H25C11.2,50,0,38.8,0,25l0,0
				C0,11.2,11.2,0,25,0z"/>
			<g class="st1">
				<path class="st2" d="M23.9,25.2c0-2.7,2.1-4.7,4.9-4.7c1.6,0,2.9,0.6,3.7,1.6l-1.4,1.2c-0.6-0.7-1.4-1.1-2.3-1.1
					c-1.7,0-2.9,1.2-2.9,2.9c0,1.7,1.2,2.9,2.9,2.9c0.9,0,1.7-0.4,2.3-1.1l1.4,1.2c-0.9,1.1-2.2,1.6-3.8,1.6
					C26,30,23.9,28,23.9,25.2z"/>
				<path class="st2" d="M33.2,25.2c0-2.7,2.1-4.7,5-4.7c2.9,0,5,2,5,4.7c0,2.7-2.1,4.7-5,4.7C35.4,30,33.2,28,33.2,25.2z
					 M41.1,25.2c0-1.7-1.2-2.9-2.8-2.9s-2.8,1.2-2.8,2.9c0,1.7,1.2,2.9,2.8,2.9S41.1,27,41.1,25.2z"/>
				<path class="st2" d="M53.1,29.8l0-5.5l-2.7,4.5h-0.9l-2.7-4.4v5.3h-2v-9.1h1.7l3.4,5.7l3.4-5.7H55l0,9.1H53.1z"/>
				<path class="st2" d="M64.3,28.1v1.7h-7v-9.1h6.9v1.7h-4.8v2h4.2V26h-4.2v2.1H64.3z"/>
				<path class="st2" d="M74.3,20.7v9.1h-1.7L68,24.3v5.5h-2.1v-9.1h1.7l4.5,5.5v-5.5H74.3z"/>
				<path class="st2" d="M83.8,28.1v1.7h-8v-1.4l5-6H76v-1.7h7.7v1.4l-5,6H83.8z"/>
				<path class="st2" d="M91.2,27.8h-4.2l-0.8,2H84l4.1-9.1h2.1l4.1,9.1H92L91.2,27.8z M90.5,26.2L89,22.8l-1.4,3.5H90.5z"/>
				<path class="st2" d="M100.9,29.8l-1.8-2.5h-0.1h-1.8v2.5h-2.1v-9.1h3.9c2.4,0,4,1.3,4,3.3c0,1.4-0.7,2.4-1.9,2.9l2,2.9H100.9z
					 M98.9,22.4h-1.7v3.2h1.7c1.3,0,1.9-0.6,1.9-1.6C100.9,23,100.2,22.4,98.9,22.4z"/>
			</g>
		</g>
	</g>
</g>
</svg>
