<?xml version="1.0" encoding="utf-8"?>
<!-- Generator: Adobe Illustrator 24.0.1, SVG Export Plug-In . SVG Version: 6.00 Build 0)  -->
<svg version="1.1" id="Capa_1" xmlns="http://www.w3.org/2000/svg" xmlns:xlink="http://www.w3.org/1999/xlink" x="0px" y="0px"
	 viewBox="0 0 127 50" style="enable-background:new 0 0 127 50;" xml:space="preserve">
<style type="text/css">
	.st0{fill-rule:evenodd;clip-rule:evenodd;fill:#572EE5;}
	.st1{enable-background:new    ;}
	.st2{fill:#FFFFFF;}
</style>
<title>CTA-ver-mas-hover</title>
<desc>Created with Sketch.</desc>
<g id="GIFOS">
	<g id="_x30_0-UI-Kit" transform="translate(-313.000000, -3032.000000)">
		<g id="CTA-ver-mas-hover" transform="translate(313.000000, 3032.000000)">
			<path id="Rectangle-3" class="st0" d="M25,0h77c13.8,0,25,11.2,25,25l0,0c0,13.8-11.2,25-25,25H25C11.2,50,0,38.8,0,25l0,0
				C0,11.2,11.2,0,25,0z"/>
			<g class="st1">
				<path class="st2" d="M30,22.4v2.4h4.2v1.7H30v3.3h-2.1v-9.1h6.9v1.7H30z"/>
				<path class="st2" d="M36.2,20.7h2.1v9.1h-2.1V20.7z"/>
				<path class="st2" d="M48.8,20.7v9.1h-1.7l-4.5-5.5v5.5h-2.1v-9.1h1.7l4.5,5.5v-5.5H48.8z"/>
				<path class="st2" d="M57,27.8h-4.2l-0.8,2h-2.2l4.1-9.1h2.1l4.1,9.1h-2.2L57,27.8z M56.3,26.2l-1.4-3.5l-1.4,3.5H56.3z"/>
				<path class="st2" d="M60.9,20.7H63v7.4h4.6v1.7h-6.7V20.7z"/>
				<path class="st2" d="M68.8,20.7h2.1v9.1h-2.1V20.7z"/>
				<path class="st2" d="M80.4,28.1v1.7h-8v-1.4l5-6h-4.9v-1.7h7.7v1.4l-5,6H80.4z"/>
				<path class="st2" d="M87.8,27.8h-4.2l-0.8,2h-2.2l4.1-9.1h2.1l4.1,9.1h-2.2L87.8,27.8z M87.1,26.2l-1.4-3.5l-1.4,3.5H87.1z"/>
				<path class="st2" d="M97.5,29.8l-1.8-2.5h-0.1h-1.8v2.5h-2.1v-9.1h3.9c2.4,0,4,1.3,4,3.3c0,1.4-0.7,2.4-1.9,2.9l2,2.9H97.5z
					 M95.5,22.4h-1.7v3.2h1.7c1.3,0,1.9-0.6,1.9-1.6C97.5,23,96.8,22.4,95.5,22.4z"/>
			</g>
		</g>
	</g>
</g>
</svg>
