<?xml version="1.0" encoding="utf-8"?>
<!-- Generator: Adobe Illustrator 24.0.1, SVG Export Plug-In . SVG Version: 6.00 Build 0)  -->
<svg version="1.1" id="Capa_1" xmlns="http://www.w3.org/2000/svg" xmlns:xlink="http://www.w3.org/1999/xlink" x="0px" y="0px"
	 viewBox="0 0 127 50" style="enable-background:new 0 0 127 50;" xml:space="preserve">
<style type="text/css">
	.st0{fill-rule:evenodd;clip-rule:evenodd;fill:#572EE5;}
	.st1{enable-background:new    ;}
	.st2{fill:#FFFFFF;}
</style>
<title>CTA-ver-mas-hover</title>
<desc>Created with Sketch.</desc>
<g id="GIFOS">
	<g id="_x30_0-UI-Kit" transform="translate(-313.000000, -3032.000000)">
		<g id="CTA-ver-mas-hover" transform="translate(313.000000, 3032.000000)">
			<path id="Rectangle-3" class="st0" d="M25,0h77c13.8,0,25,11.2,25,25l0,0c0,13.8-11.2,25-25,25H25C11.2,50,0,38.8,0,25l0,0
				C0,11.2,11.2,0,25,0z"/>
			<g class="st1">
				<path class="st2" d="M41.2,25.1h1.9v3.7c-1,0.8-2.4,1.2-3.7,1.2c-2.9,0-5-2-5-4.7s2.1-4.7,5-4.7c1.6,0,2.9,0.5,3.8,1.6L42,23.4
					c-0.7-0.7-1.4-1-2.4-1c-1.8,0-3,1.2-3,2.9c0,1.7,1.2,2.9,3,2.9c0.6,0,1.1-0.1,1.6-0.4V25.1z"/>
				<path class="st2" d="M50.9,29.8l-1.8-2.5H49h-1.8v2.5h-2.1v-9.1H49c2.4,0,4,1.3,4,3.3c0,1.4-0.7,2.4-1.9,2.9l2,2.9H50.9z
					 M48.9,22.4h-1.7v3.2h1.7c1.3,0,1.9-0.6,1.9-1.6C50.9,23,50.2,22.4,48.9,22.4z"/>
				<path class="st2" d="M60.7,27.8h-4.2l-0.8,2h-2.2l4.1-9.1h2.1l4.1,9.1h-2.2L60.7,27.8z M60,26.2l-1.4-3.5l-1.4,3.5H60z"/>
				<path class="st2" d="M73,27.3c0,1.6-1.2,2.5-3.6,2.5h-4.7v-9.1h4.4c2.3,0,3.4,0.9,3.4,2.4c0,0.9-0.5,1.6-1.2,2
					C72.3,25.4,73,26.2,73,27.3z M66.7,22.3v2.1h2.1c1,0,1.6-0.4,1.6-1.1s-0.6-1.1-1.6-1.1H66.7z M70.8,27.1c0-0.8-0.6-1.1-1.7-1.1
					h-2.5v2.2h2.5C70.3,28.2,70.8,27.9,70.8,27.1z"/>
				<path class="st2" d="M80.6,27.8h-4.2l-0.8,2h-2.2l4.1-9.1h2.1l4.1,9.1h-2.2L80.6,27.8z M79.9,26.2l-1.4-3.5L77,26.2H79.9z"/>
				<path class="st2" d="M90.3,29.8l-1.8-2.5h-0.1h-1.8v2.5h-2.1v-9.1h3.9c2.4,0,4,1.3,4,3.3c0,1.4-0.7,2.4-1.9,2.9l2,2.9H90.3z
					 M88.3,22.4h-1.7v3.2h1.7c1.3,0,1.9-0.6,1.9-1.6C90.3,23,89.6,22.4,88.3,22.4z"/>
			</g>
		</g>
	</g>
</g>
</svg>
