<?xml version="1.0" encoding="utf-8"?>
<!-- Generator: Adobe Illustrator 24.0.1, SVG Export Plug-In . SVG Version: 6.00 Build 0)  -->
<svg version="1.1" id="Capa_1" xmlns="http://www.w3.org/2000/svg" xmlns:xlink="http://www.w3.org/1999/xlink" x="0px" y="0px"
	 viewBox="0 0 127 50" style="enable-background:new 0 0 127 50;" xml:space="preserve">
<style type="text/css">
	.st0{fill-rule:evenodd;clip-rule:evenodd;fill:#572EE5;}
	.st1{enable-background:new    ;}
	.st2{fill:#FFFFFF;}
</style>
<title>CTA-ver-mas-hover</title>
<desc>Created with Sketch.</desc>
<g id="GIFOS">
	<g id="_x30_0-UI-Kit" transform="translate(-313.000000, -3032.000000)">
		<g id="CTA-ver-mas-hover" transform="translate(313.000000, 3032.000000)">
			<path id="Rectangle-3" class="st0" d="M25,0h77c13.8,0,25,11.2,25,25l0,0c0,13.8-11.2,25-25,25H25C11.2,50,0,38.8,0,25l0,0
				C0,11.2,11.2,0,25,0z"/>
			<g class="st1">
				<path class="st2" d="M24.1,28.9l0.7-1.6c0.8,0.6,1.9,0.9,3,0.9c1.2,0,1.8-0.4,1.8-1c0-1.7-5.3-0.5-5.3-3.9
					c0-1.5,1.2-2.8,3.8-2.8c1.1,0,2.3,0.3,3.2,0.8l-0.6,1.6c-0.8-0.5-1.7-0.7-2.5-0.7c-1.2,0-1.7,0.5-1.7,1c0,1.7,5.3,0.5,5.3,3.9
					c0,1.5-1.3,2.8-3.9,2.8C26.4,30,24.9,29.5,24.1,28.9z"/>
				<path class="st2" d="M33.1,25.8v-5.1h2.1v5c0,1.7,0.8,2.4,2,2.4c1.3,0,2-0.7,2-2.4v-5h2.1v5.1c0,2.7-1.5,4.2-4.1,4.2
					C34.6,30,33.1,28.5,33.1,25.8z"/>
				<path class="st2" d="M51.7,27.3c0,1.6-1.2,2.5-3.6,2.5h-4.7v-9.1h4.4c2.3,0,3.4,0.9,3.4,2.4c0,0.9-0.5,1.6-1.2,2
					C51.1,25.4,51.7,26.2,51.7,27.3z M45.5,22.3v2.1h2.1c1,0,1.6-0.4,1.6-1.1s-0.6-1.1-1.6-1.1H45.5z M49.6,27.1
					c0-0.8-0.6-1.1-1.7-1.1h-2.5v2.2h2.5C49,28.2,49.6,27.9,49.6,27.1z"/>
				<path class="st2" d="M53.3,20.7h2.1v9.1h-2.1V20.7z"/>
				<path class="st2" d="M63.4,29.8l-1.8-2.5h-0.1h-1.8v2.5h-2.1v-9.1h3.9c2.4,0,4,1.3,4,3.3c0,1.4-0.7,2.4-1.9,2.9l2,2.9H63.4z
					 M61.4,22.4h-1.7v3.2h1.7c1.3,0,1.9-0.6,1.9-1.6C63.4,23,62.7,22.4,61.4,22.4z"/>
				<path class="st2" d="M77,25.1h1.9v3.7c-1,0.8-2.4,1.2-3.7,1.2c-2.9,0-5-2-5-4.7s2.1-4.7,5-4.7c1.6,0,2.9,0.5,3.8,1.6l-1.4,1.2
					c-0.7-0.7-1.4-1-2.4-1c-1.8,0-3,1.2-3,2.9c0,1.7,1.2,2.9,3,2.9c0.6,0,1.1-0.1,1.6-0.4V25.1z"/>
				<path class="st2" d="M80.9,20.7H83v9.1h-2.1V20.7z"/>
				<path class="st2" d="M87.2,22.4v2.4h4.2v1.7h-4.2v3.3h-2.1v-9.1H92v1.7H87.2z"/>
				<path class="st2" d="M92.8,25.2c0-2.7,2.1-4.7,5-4.7c2.9,0,5,2,5,4.7c0,2.7-2.1,4.7-5,4.7C94.9,30,92.8,28,92.8,25.2z
					 M100.6,25.2c0-1.7-1.2-2.9-2.8-2.9s-2.8,1.2-2.8,2.9c0,1.7,1.2,2.9,2.8,2.9S100.6,27,100.6,25.2z"/>
			</g>
		</g>
	</g>
</g>
</svg>
