<?xml version="1.0" encoding="utf-8"?>
<!-- Generator: Adobe Illustrator 24.0.1, SVG Export Plug-In . SVG Version: 6.00 Build 0)  -->
<svg version="1.1" id="Capa_1" xmlns="http://www.w3.org/2000/svg" xmlns:xlink="http://www.w3.org/1999/xlink" x="0px" y="0px"
	 viewBox="0 0 32 32" style="enable-background:new 0 0 32 32;" xml:space="preserve">
<style type="text/css">
	.st0{fill:#FFFFFF;}
	.st1{fill:#572EE5;}
</style>
<title>icon-fav-hover</title>
<desc>Created with Sketch.</desc>
<g id="GIFOS">
	<g id="_x30_0-UI-Kit" transform="translate(-858.000000, -2777.000000)">
		<g id="icon-fav-hover" transform="translate(858.000000, 2777.000000)">
			<path id="Rectangle-Copy-7" class="st0" d="M6,0h20c3.3,0,6,2.7,6,6v20c0,3.3-2.7,6-6,6H6c-3.3,0-6-2.7-6-6V6C0,2.7,2.7,0,6,0z"
				/>
		</g>
	</g>
</g>
<g id="GIFOS_1_">
	<g id="_x32_4-Mobile-Gifo-Max" transform="translate(-261.000000, -427.000000)">
		<g id="icon-fav-active">
			<path id="path-1_2_" class="st1" d="M280.8,435c1.3,0,2.6,0.5,3.6,1.5c0.9,1,1.5,2.3,1.5,3.6c0,1.4-0.5,2.7-1.5,3.6l-6.9,7
				c-0.3,0.3-0.8,0.3-1.1,0l-6.9-7c-2-2-2-5.3,0-7.3c2-2,5.2-2,7.1,0l0.3,0.3l0.3-0.3C278.2,435.5,279.5,435,280.8,435z"/>
		</g>
	</g>
</g>
</svg>
